# xmcd CD database file
#
# Track frame offsets:
#	150
#	10820
#	19059
#	38280
#	58073
#	67319
#	81520
#	90832
#	98660
#	105042
#	113425
#	124547
#	139627
#	147123
#	157164
#
# Disc length: 2234 seconds
#
# Revision: 0
# Processed by: cddbd v1.5.1PL0 Copyright (c) Steve Scherf et al.
# Submitted via: CDex 1.50
#
DISCID=b008b80f
DTITLE=정재형 - 오로라공주OST
DYEAR=1900
DGENRE=New Age
TTITLE0=Prologue
TTITLE1=Memory - #1.욕실
TTITLE2=La danse mortelle - Wedding hall
TTITLE3=꽃이 지다 - feat.조원선
TTITLE4=성호의 Theme - feat.조원선
TTITLE5=Memory - #2.Taxi
TTITLE6=민아의 Theme
TTITLE7=Swimming pool
TTITLE8=격투
TTITLE9=독백
TTITLE10=성호의 독백
TTITLE11=회상
TTITLE12=순정의 Theme - Orchestra version
TTITLE13=순정의 Theme - Vocal version
TTITLE14=Prologue - Piano version
EXTD=
EXTT0=
EXTT1=
EXTT2=
EXTT3=
EXTT4=
EXTT5=
EXTT6=
EXTT7=
EXTT8=
EXTT9=
EXTT10=
EXTT11=
EXTT12=
EXTT13=
EXTT14=
PLAYORDER=
